<mxfile host="app.diagrams.net" modified="2023-06-11T15:57:21.900Z" agent="Mozilla/5.0 (Windows NT 10.0; Win64; x64) AppleWebKit/537.36 (KHTML, like Gecko) Chrome/114.0.0.0 Safari/537.36" etag="NaWsbJegr-oQxdd3db7R" version="21.3.8" type="device">
  <diagram name="Page-1" id="VS1oO5ibQx5XVfMO6Kc4">
    <mxGraphModel dx="2403" dy="1121" grid="0" gridSize="10" guides="1" tooltips="1" connect="1" arrows="1" fold="1" page="0" pageScale="1" pageWidth="850" pageHeight="1100" math="0" shadow="0">
      <root>
        <mxCell id="0" />
        <mxCell id="1" parent="0" />
        <mxCell id="FRh-b3wu35y1rw_efmFj-13" value="" style="edgeStyle=orthogonalEdgeStyle;rounded=0;orthogonalLoop=1;jettySize=auto;html=1;" edge="1" parent="1" source="FRh-b3wu35y1rw_efmFj-1" target="FRh-b3wu35y1rw_efmFj-2">
          <mxGeometry relative="1" as="geometry" />
        </mxCell>
        <mxCell id="FRh-b3wu35y1rw_efmFj-1" value="&lt;b&gt;S0&lt;br&gt;&lt;/b&gt;&lt;span style=&quot;border-color: var(--border-color);&quot;&gt;IE = 1&lt;/span&gt;&lt;br&gt;WE = 1&lt;br&gt;REA = 0&lt;br&gt;&lt;span style=&quot;border-color: var(--border-color);&quot;&gt;REB = 0&lt;br&gt;&lt;/span&gt;&lt;span style=&quot;border-color: var(--border-color);&quot;&gt;WA[1..0] = 00&amp;nbsp;&lt;br style=&quot;border-color: var(--border-color);&quot;&gt;&lt;/span&gt;RAA[1..0] = XX&lt;br&gt;RAB[1..0] = XX&lt;br&gt;OP[2..0] = XXX&lt;br&gt;OE = 0" style="ellipse;whiteSpace=wrap;html=1;" vertex="1" parent="1">
          <mxGeometry x="100" y="40" width="120" height="200" as="geometry" />
        </mxCell>
        <mxCell id="FRh-b3wu35y1rw_efmFj-14" value="" style="edgeStyle=orthogonalEdgeStyle;rounded=0;orthogonalLoop=1;jettySize=auto;html=1;" edge="1" parent="1" source="FRh-b3wu35y1rw_efmFj-2" target="FRh-b3wu35y1rw_efmFj-3">
          <mxGeometry relative="1" as="geometry" />
        </mxCell>
        <mxCell id="FRh-b3wu35y1rw_efmFj-2" value="&lt;b style=&quot;border-color: var(--border-color);&quot;&gt;S1&lt;br style=&quot;border-color: var(--border-color);&quot;&gt;&lt;/b&gt;&lt;span style=&quot;border-color: var(--border-color);&quot;&gt;IE = 1&lt;/span&gt;&lt;span style=&quot;border-color: var(--border-color);&quot;&gt;&lt;br style=&quot;border-color: var(--border-color);&quot;&gt;WE = 1&lt;br style=&quot;border-color: var(--border-color);&quot;&gt;REA = 0&lt;br style=&quot;border-color: var(--border-color);&quot;&gt;&lt;/span&gt;&lt;span style=&quot;border-color: var(--border-color);&quot;&gt;REB = 0&lt;br style=&quot;border-color: var(--border-color);&quot;&gt;&lt;/span&gt;&lt;span style=&quot;border-color: var(--border-color);&quot;&gt;WA[1..0] = 01&amp;nbsp;&amp;nbsp;&lt;br style=&quot;border-color: var(--border-color);&quot;&gt;&lt;/span&gt;&lt;span style=&quot;border-color: var(--border-color);&quot;&gt;RAA[1..0] = XX&lt;br style=&quot;border-color: var(--border-color);&quot;&gt;RAB[1..0] = XX&lt;br style=&quot;border-color: var(--border-color);&quot;&gt;OP[2..0] = XXX&lt;br style=&quot;border-color: var(--border-color);&quot;&gt;OE = 0&lt;/span&gt;" style="ellipse;whiteSpace=wrap;html=1;" vertex="1" parent="1">
          <mxGeometry x="300" y="40" width="120" height="200" as="geometry" />
        </mxCell>
        <mxCell id="FRh-b3wu35y1rw_efmFj-15" value="" style="edgeStyle=orthogonalEdgeStyle;rounded=0;orthogonalLoop=1;jettySize=auto;html=1;" edge="1" parent="1" source="FRh-b3wu35y1rw_efmFj-3" target="FRh-b3wu35y1rw_efmFj-4">
          <mxGeometry relative="1" as="geometry" />
        </mxCell>
        <mxCell id="FRh-b3wu35y1rw_efmFj-3" value="&lt;b style=&quot;border-color: var(--border-color);&quot;&gt;S2&lt;br style=&quot;border-color: var(--border-color);&quot;&gt;&lt;/b&gt;&lt;span style=&quot;border-color: var(--border-color);&quot;&gt;IE = 1&lt;/span&gt;&lt;span style=&quot;border-color: var(--border-color);&quot;&gt;&lt;br style=&quot;border-color: var(--border-color);&quot;&gt;WE = 1&lt;br style=&quot;border-color: var(--border-color);&quot;&gt;REA = 0&lt;br style=&quot;border-color: var(--border-color);&quot;&gt;&lt;/span&gt;&lt;span style=&quot;border-color: var(--border-color);&quot;&gt;REB = 0&lt;br style=&quot;border-color: var(--border-color);&quot;&gt;&lt;/span&gt;&lt;span style=&quot;border-color: var(--border-color);&quot;&gt;WA[1..0] = 10&amp;nbsp;&lt;br style=&quot;border-color: var(--border-color);&quot;&gt;&lt;/span&gt;&lt;span style=&quot;border-color: var(--border-color);&quot;&gt;RAA[1..0] = XX&lt;br style=&quot;border-color: var(--border-color);&quot;&gt;RAB[1..0] = XX&lt;br style=&quot;border-color: var(--border-color);&quot;&gt;OP[2..0] = XXX&lt;br style=&quot;border-color: var(--border-color);&quot;&gt;OE = 0&lt;/span&gt;" style="ellipse;whiteSpace=wrap;html=1;" vertex="1" parent="1">
          <mxGeometry x="500" y="40" width="120" height="200" as="geometry" />
        </mxCell>
        <mxCell id="FRh-b3wu35y1rw_efmFj-16" value="" style="edgeStyle=orthogonalEdgeStyle;rounded=0;orthogonalLoop=1;jettySize=auto;html=1;" edge="1" parent="1" source="FRh-b3wu35y1rw_efmFj-4" target="FRh-b3wu35y1rw_efmFj-6">
          <mxGeometry relative="1" as="geometry" />
        </mxCell>
        <mxCell id="FRh-b3wu35y1rw_efmFj-4" value="&lt;b style=&quot;border-color: var(--border-color);&quot;&gt;S3&lt;br style=&quot;border-color: var(--border-color);&quot;&gt;&lt;/b&gt;&lt;span style=&quot;border-color: var(--border-color);&quot;&gt;IE = 1&lt;/span&gt;&lt;span style=&quot;border-color: var(--border-color);&quot;&gt;&lt;br style=&quot;border-color: var(--border-color);&quot;&gt;WE = 1&lt;br style=&quot;border-color: var(--border-color);&quot;&gt;REA = 0&lt;br style=&quot;border-color: var(--border-color);&quot;&gt;&lt;/span&gt;&lt;span style=&quot;border-color: var(--border-color);&quot;&gt;REB = 0&lt;br style=&quot;border-color: var(--border-color);&quot;&gt;&lt;/span&gt;&lt;span style=&quot;border-color: var(--border-color);&quot;&gt;WA[1..0] = 11&amp;nbsp;&lt;br style=&quot;border-color: var(--border-color);&quot;&gt;&lt;/span&gt;&lt;span style=&quot;border-color: var(--border-color);&quot;&gt;RAA[1..0] = XX&lt;br style=&quot;border-color: var(--border-color);&quot;&gt;RAB[1..0] = XX&lt;br style=&quot;border-color: var(--border-color);&quot;&gt;OP[2..0] = XXX&lt;br style=&quot;border-color: var(--border-color);&quot;&gt;OE = 0&lt;/span&gt;" style="ellipse;whiteSpace=wrap;html=1;" vertex="1" parent="1">
          <mxGeometry x="700" y="40" width="120" height="200" as="geometry" />
        </mxCell>
        <mxCell id="FRh-b3wu35y1rw_efmFj-5" value="&lt;b style=&quot;border-color: var(--border-color);&quot;&gt;S11&lt;br style=&quot;border-color: var(--border-color);&quot;&gt;&lt;/b&gt;&lt;span style=&quot;border-color: var(--border-color);&quot;&gt;IE = X&lt;/span&gt;&lt;span style=&quot;border-color: var(--border-color);&quot;&gt;&lt;br style=&quot;border-color: var(--border-color);&quot;&gt;WE = 0&lt;br style=&quot;border-color: var(--border-color);&quot;&gt;REA = 0&lt;br style=&quot;border-color: var(--border-color);&quot;&gt;&lt;/span&gt;&lt;span style=&quot;border-color: var(--border-color);&quot;&gt;REB = 0&lt;br style=&quot;border-color: var(--border-color);&quot;&gt;&lt;/span&gt;&lt;span style=&quot;border-color: var(--border-color);&quot;&gt;WA[1..0] = XX&amp;nbsp;&lt;br style=&quot;border-color: var(--border-color);&quot;&gt;&lt;/span&gt;&lt;span style=&quot;border-color: var(--border-color);&quot;&gt;RAA[1..0] = XX&lt;br style=&quot;border-color: var(--border-color);&quot;&gt;RAB[1..0] = XX&lt;br style=&quot;border-color: var(--border-color);&quot;&gt;OP[2..0] = XXX&lt;br style=&quot;border-color: var(--border-color);&quot;&gt;OE = 1&lt;/span&gt;" style="ellipse;whiteSpace=wrap;html=1;" vertex="1" parent="1">
          <mxGeometry x="-20" y="240" width="120" height="200" as="geometry" />
        </mxCell>
        <mxCell id="FRh-b3wu35y1rw_efmFj-6" value="&lt;b style=&quot;border-color: var(--border-color);&quot;&gt;S4&lt;br style=&quot;border-color: var(--border-color);&quot;&gt;&lt;/b&gt;&lt;span style=&quot;border-color: var(--border-color);&quot;&gt;IE = 0&lt;/span&gt;&lt;span style=&quot;border-color: var(--border-color);&quot;&gt;&lt;br style=&quot;border-color: var(--border-color);&quot;&gt;WE = 1&lt;br style=&quot;border-color: var(--border-color);&quot;&gt;REA = 1&lt;br style=&quot;border-color: var(--border-color);&quot;&gt;&lt;/span&gt;&lt;span style=&quot;border-color: var(--border-color);&quot;&gt;REB = 0&lt;br style=&quot;border-color: var(--border-color);&quot;&gt;&lt;/span&gt;&lt;span style=&quot;border-color: var(--border-color);&quot;&gt;WA[1..0] = 00&amp;nbsp;&lt;br style=&quot;border-color: var(--border-color);&quot;&gt;&lt;/span&gt;&lt;span style=&quot;border-color: var(--border-color);&quot;&gt;RAA[1..0] = 00&lt;br style=&quot;border-color: var(--border-color);&quot;&gt;RAB[1..0] = XX&lt;br style=&quot;border-color: var(--border-color);&quot;&gt;OP[2..0] = 000&lt;br style=&quot;border-color: var(--border-color);&quot;&gt;OE =&lt;b&gt;&amp;nbsp;&lt;/b&gt;0&lt;/span&gt;" style="ellipse;whiteSpace=wrap;html=1;" vertex="1" parent="1">
          <mxGeometry x="900" y="40" width="120" height="200" as="geometry" />
        </mxCell>
        <mxCell id="FRh-b3wu35y1rw_efmFj-7" value="&lt;b style=&quot;border-color: var(--border-color);&quot;&gt;S5&lt;br style=&quot;border-color: var(--border-color);&quot;&gt;&lt;/b&gt;&lt;span style=&quot;border-color: var(--border-color);&quot;&gt;IE = 0&lt;/span&gt;&lt;span style=&quot;border-color: var(--border-color);&quot;&gt;&lt;br style=&quot;border-color: var(--border-color);&quot;&gt;WE = 1&lt;br style=&quot;border-color: var(--border-color);&quot;&gt;REA = 1&lt;br style=&quot;border-color: var(--border-color);&quot;&gt;&lt;/span&gt;&lt;span style=&quot;border-color: var(--border-color);&quot;&gt;REB = 0&lt;br style=&quot;border-color: var(--border-color);&quot;&gt;&lt;/span&gt;&lt;span style=&quot;border-color: var(--border-color);&quot;&gt;WA[1..0] = 01&amp;nbsp;&lt;br style=&quot;border-color: var(--border-color);&quot;&gt;&lt;/span&gt;&lt;span style=&quot;border-color: var(--border-color);&quot;&gt;RAA[1..0] = 01&lt;br style=&quot;border-color: var(--border-color);&quot;&gt;RAB[1..0] = XX&lt;br style=&quot;border-color: var(--border-color);&quot;&gt;OP[2..0] = 001&lt;br style=&quot;border-color: var(--border-color);&quot;&gt;OE = 0&lt;/span&gt;" style="ellipse;whiteSpace=wrap;html=1;" vertex="1" parent="1">
          <mxGeometry x="1020" y="240" width="120" height="200" as="geometry" />
        </mxCell>
        <mxCell id="FRh-b3wu35y1rw_efmFj-8" value="&lt;b style=&quot;border-color: var(--border-color);&quot;&gt;S10&lt;br style=&quot;border-color: var(--border-color);&quot;&gt;&lt;/b&gt;&lt;span style=&quot;border-color: var(--border-color);&quot;&gt;IE = 0&lt;/span&gt;&lt;span style=&quot;border-color: var(--border-color);&quot;&gt;&lt;br style=&quot;border-color: var(--border-color);&quot;&gt;WE = 1&lt;br style=&quot;border-color: var(--border-color);&quot;&gt;REA = 1&lt;br style=&quot;border-color: var(--border-color);&quot;&gt;&lt;/span&gt;&lt;span style=&quot;border-color: var(--border-color);&quot;&gt;REB = 1&lt;br style=&quot;border-color: var(--border-color);&quot;&gt;&lt;/span&gt;&lt;span style=&quot;border-color: var(--border-color);&quot;&gt;WA[1..0] = 10&amp;nbsp;&lt;br style=&quot;border-color: var(--border-color);&quot;&gt;&lt;/span&gt;&lt;span style=&quot;border-color: var(--border-color);&quot;&gt;RAA[1..0] = 11&lt;br style=&quot;border-color: var(--border-color);&quot;&gt;RAB[1..0] = 00&lt;br style=&quot;border-color: var(--border-color);&quot;&gt;OP[2..0] = 011&lt;br style=&quot;border-color: var(--border-color);&quot;&gt;OE =&lt;/span&gt;&lt;b style=&quot;border-color: var(--border-color);&quot;&gt;&amp;nbsp;&lt;/b&gt;&lt;span style=&quot;border-color: var(--border-color);&quot;&gt;0&lt;/span&gt;" style="ellipse;whiteSpace=wrap;html=1;" vertex="1" parent="1">
          <mxGeometry x="100" y="440" width="120" height="200" as="geometry" />
        </mxCell>
        <mxCell id="FRh-b3wu35y1rw_efmFj-24" value="" style="edgeStyle=orthogonalEdgeStyle;rounded=0;orthogonalLoop=1;jettySize=auto;html=1;" edge="1" parent="1" source="FRh-b3wu35y1rw_efmFj-9" target="FRh-b3wu35y1rw_efmFj-8">
          <mxGeometry relative="1" as="geometry" />
        </mxCell>
        <mxCell id="FRh-b3wu35y1rw_efmFj-9" value="&lt;b style=&quot;border-color: var(--border-color);&quot;&gt;S9&lt;br style=&quot;border-color: var(--border-color);&quot;&gt;&lt;/b&gt;&lt;span style=&quot;border-color: var(--border-color);&quot;&gt;IE = 0&lt;/span&gt;&lt;span style=&quot;border-color: var(--border-color);&quot;&gt;&lt;br style=&quot;border-color: var(--border-color);&quot;&gt;WE = 1&lt;br style=&quot;border-color: var(--border-color);&quot;&gt;REA = 1&lt;br style=&quot;border-color: var(--border-color);&quot;&gt;&lt;/span&gt;&lt;span style=&quot;border-color: var(--border-color);&quot;&gt;REB = 1&lt;br style=&quot;border-color: var(--border-color);&quot;&gt;&lt;/span&gt;&lt;span style=&quot;border-color: var(--border-color);&quot;&gt;WA[1..0] = 11&amp;nbsp;&lt;br style=&quot;border-color: var(--border-color);&quot;&gt;&lt;/span&gt;&lt;span style=&quot;border-color: var(--border-color);&quot;&gt;RAA[1..0] = 10&lt;br style=&quot;border-color: var(--border-color);&quot;&gt;RAB[1..0] = 01&lt;br style=&quot;border-color: var(--border-color);&quot;&gt;OP[2..0] = 100&lt;br style=&quot;border-color: var(--border-color);&quot;&gt;OE = 0&lt;/span&gt;" style="ellipse;whiteSpace=wrap;html=1;" vertex="1" parent="1">
          <mxGeometry x="300" y="440" width="120" height="200" as="geometry" />
        </mxCell>
        <mxCell id="FRh-b3wu35y1rw_efmFj-23" value="" style="edgeStyle=orthogonalEdgeStyle;rounded=0;orthogonalLoop=1;jettySize=auto;html=1;" edge="1" parent="1" source="FRh-b3wu35y1rw_efmFj-10" target="FRh-b3wu35y1rw_efmFj-9">
          <mxGeometry relative="1" as="geometry" />
        </mxCell>
        <mxCell id="FRh-b3wu35y1rw_efmFj-10" value="&lt;b style=&quot;border-color: var(--border-color);&quot;&gt;S8&lt;br style=&quot;border-color: var(--border-color);&quot;&gt;&lt;/b&gt;&lt;span style=&quot;border-color: var(--border-color);&quot;&gt;IE = 0&lt;/span&gt;&lt;span style=&quot;border-color: var(--border-color);&quot;&gt;&lt;br style=&quot;border-color: var(--border-color);&quot;&gt;WE = 1&lt;br style=&quot;border-color: var(--border-color);&quot;&gt;REA = 1&lt;br style=&quot;border-color: var(--border-color);&quot;&gt;&lt;/span&gt;&lt;span style=&quot;border-color: var(--border-color);&quot;&gt;REB = 1&lt;br style=&quot;border-color: var(--border-color);&quot;&gt;&lt;/span&gt;&lt;span style=&quot;border-color: var(--border-color);&quot;&gt;WA[1..0] = 10&amp;nbsp;&lt;br style=&quot;border-color: var(--border-color);&quot;&gt;&lt;/span&gt;&lt;span style=&quot;border-color: var(--border-color);&quot;&gt;RAA[1..0] = 10&lt;br style=&quot;border-color: var(--border-color);&quot;&gt;RAB[1..0] = 11&lt;br style=&quot;border-color: var(--border-color);&quot;&gt;OP[2..0] = 011&lt;br style=&quot;border-color: var(--border-color);&quot;&gt;OE = 0&lt;/span&gt;" style="ellipse;whiteSpace=wrap;html=1;" vertex="1" parent="1">
          <mxGeometry x="500" y="440" width="120" height="200" as="geometry" />
        </mxCell>
        <mxCell id="FRh-b3wu35y1rw_efmFj-22" value="" style="edgeStyle=orthogonalEdgeStyle;rounded=0;orthogonalLoop=1;jettySize=auto;html=1;" edge="1" parent="1" source="FRh-b3wu35y1rw_efmFj-11" target="FRh-b3wu35y1rw_efmFj-10">
          <mxGeometry relative="1" as="geometry" />
        </mxCell>
        <mxCell id="FRh-b3wu35y1rw_efmFj-11" value="&lt;b style=&quot;border-color: var(--border-color);&quot;&gt;S7&lt;br style=&quot;border-color: var(--border-color);&quot;&gt;&lt;/b&gt;&lt;span style=&quot;border-color: var(--border-color);&quot;&gt;IE = 0&lt;/span&gt;&lt;span style=&quot;border-color: var(--border-color);&quot;&gt;&lt;br style=&quot;border-color: var(--border-color);&quot;&gt;WE = 1&lt;br style=&quot;border-color: var(--border-color);&quot;&gt;REA = 1&lt;br style=&quot;border-color: var(--border-color);&quot;&gt;&lt;/span&gt;&lt;span style=&quot;border-color: var(--border-color);&quot;&gt;REB = 0&lt;br style=&quot;border-color: var(--border-color);&quot;&gt;&lt;/span&gt;&lt;span style=&quot;border-color: var(--border-color);&quot;&gt;WA[1..0] = 11&amp;nbsp;&lt;br style=&quot;border-color: var(--border-color);&quot;&gt;&lt;/span&gt;&lt;span style=&quot;border-color: var(--border-color);&quot;&gt;RAA[1..0] = 11&lt;br style=&quot;border-color: var(--border-color);&quot;&gt;RAB[1..0] = XX&lt;br style=&quot;border-color: var(--border-color);&quot;&gt;OP[2..0] = 001&lt;br style=&quot;border-color: var(--border-color);&quot;&gt;OE = 0&lt;/span&gt;" style="ellipse;whiteSpace=wrap;html=1;" vertex="1" parent="1">
          <mxGeometry x="700" y="440" width="120" height="200" as="geometry" />
        </mxCell>
        <mxCell id="FRh-b3wu35y1rw_efmFj-21" value="" style="edgeStyle=orthogonalEdgeStyle;rounded=0;orthogonalLoop=1;jettySize=auto;html=1;" edge="1" parent="1" source="FRh-b3wu35y1rw_efmFj-12" target="FRh-b3wu35y1rw_efmFj-11">
          <mxGeometry relative="1" as="geometry" />
        </mxCell>
        <mxCell id="FRh-b3wu35y1rw_efmFj-12" value="&lt;b style=&quot;border-color: var(--border-color);&quot;&gt;S6&lt;br style=&quot;border-color: var(--border-color);&quot;&gt;&lt;/b&gt;&lt;span style=&quot;border-color: var(--border-color);&quot;&gt;IE = 0&lt;/span&gt;&lt;span style=&quot;border-color: var(--border-color);&quot;&gt;&lt;br style=&quot;border-color: var(--border-color);&quot;&gt;WE = 1&lt;br style=&quot;border-color: var(--border-color);&quot;&gt;REA = 1&lt;br style=&quot;border-color: var(--border-color);&quot;&gt;&lt;/span&gt;&lt;span style=&quot;border-color: var(--border-color);&quot;&gt;REB = 0&lt;br style=&quot;border-color: var(--border-color);&quot;&gt;&lt;/span&gt;&lt;span style=&quot;border-color: var(--border-color);&quot;&gt;WA[1..0] = 10&amp;nbsp;&lt;br style=&quot;border-color: var(--border-color);&quot;&gt;&lt;/span&gt;&lt;span style=&quot;border-color: var(--border-color);&quot;&gt;RAA[1..0] = 10&lt;br style=&quot;border-color: var(--border-color);&quot;&gt;RAB[1..0] = XX&lt;br style=&quot;border-color: var(--border-color);&quot;&gt;OP[2..0] = 010&lt;br style=&quot;border-color: var(--border-color);&quot;&gt;OE = 0&lt;/span&gt;" style="ellipse;whiteSpace=wrap;html=1;" vertex="1" parent="1">
          <mxGeometry x="900" y="440" width="120" height="200" as="geometry" />
        </mxCell>
        <mxCell id="FRh-b3wu35y1rw_efmFj-19" value="" style="curved=1;endArrow=classic;html=1;rounded=0;exitX=1;exitY=0.5;exitDx=0;exitDy=0;entryX=0.5;entryY=0;entryDx=0;entryDy=0;" edge="1" parent="1" source="FRh-b3wu35y1rw_efmFj-6" target="FRh-b3wu35y1rw_efmFj-7">
          <mxGeometry width="50" height="50" relative="1" as="geometry">
            <mxPoint x="1010" y="300" as="sourcePoint" />
            <mxPoint x="1060" y="250" as="targetPoint" />
            <Array as="points">
              <mxPoint x="1060" y="160" />
              <mxPoint x="1080" y="200" />
            </Array>
          </mxGeometry>
        </mxCell>
        <mxCell id="FRh-b3wu35y1rw_efmFj-20" value="" style="curved=1;endArrow=classic;html=1;rounded=0;exitX=1;exitY=0.5;exitDx=0;exitDy=0;entryX=1;entryY=0.5;entryDx=0;entryDy=0;" edge="1" parent="1" target="FRh-b3wu35y1rw_efmFj-12">
          <mxGeometry width="50" height="50" relative="1" as="geometry">
            <mxPoint x="1080" y="440" as="sourcePoint" />
            <mxPoint x="1140" y="540" as="targetPoint" />
            <Array as="points">
              <mxPoint x="1090" y="480" />
              <mxPoint x="1060" y="520" />
            </Array>
          </mxGeometry>
        </mxCell>
        <mxCell id="FRh-b3wu35y1rw_efmFj-25" value="" style="curved=1;endArrow=classic;html=1;rounded=0;exitX=1;exitY=0.5;exitDx=0;exitDy=0;entryX=0;entryY=0.5;entryDx=0;entryDy=0;" edge="1" parent="1" target="FRh-b3wu35y1rw_efmFj-1">
          <mxGeometry width="50" height="50" relative="1" as="geometry">
            <mxPoint x="40" y="240" as="sourcePoint" />
            <mxPoint x="100" y="340" as="targetPoint" />
            <Array as="points">
              <mxPoint x="40" y="170" />
            </Array>
          </mxGeometry>
        </mxCell>
        <mxCell id="FRh-b3wu35y1rw_efmFj-26" value="" style="curved=1;endArrow=classic;html=1;rounded=0;exitX=0;exitY=0.5;exitDx=0;exitDy=0;entryX=0;entryY=0.5;entryDx=0;entryDy=0;" edge="1" parent="1" source="FRh-b3wu35y1rw_efmFj-8">
          <mxGeometry width="50" height="50" relative="1" as="geometry">
            <mxPoint x="-20" y="540" as="sourcePoint" />
            <mxPoint x="40" y="440" as="targetPoint" />
            <Array as="points">
              <mxPoint x="30" y="510" />
            </Array>
          </mxGeometry>
        </mxCell>
        <mxCell id="FRh-b3wu35y1rw_efmFj-28" value="" style="curved=1;endArrow=classic;html=1;rounded=0;exitX=0;exitY=0;exitDx=0;exitDy=0;entryX=0.5;entryY=0;entryDx=0;entryDy=0;" edge="1" parent="1" source="FRh-b3wu35y1rw_efmFj-1" target="FRh-b3wu35y1rw_efmFj-1">
          <mxGeometry width="50" height="50" relative="1" as="geometry">
            <mxPoint x="350" y="80" as="sourcePoint" />
            <mxPoint x="400" y="30" as="targetPoint" />
            <Array as="points">
              <mxPoint x="70" y="30" />
              <mxPoint x="110" y="-30" />
              <mxPoint x="170" y="-20" />
            </Array>
          </mxGeometry>
        </mxCell>
        <mxCell id="FRh-b3wu35y1rw_efmFj-29" value="START = 1" style="text;html=1;strokeColor=none;fillColor=none;align=center;verticalAlign=middle;whiteSpace=wrap;rounded=0;" vertex="1" parent="1">
          <mxGeometry x="220" y="110" width="70" height="30" as="geometry" />
        </mxCell>
        <mxCell id="FRh-b3wu35y1rw_efmFj-30" value="START = 0" style="text;html=1;strokeColor=none;fillColor=none;align=center;verticalAlign=middle;whiteSpace=wrap;rounded=0;" vertex="1" parent="1">
          <mxGeometry x="60" y="-20" width="70" height="30" as="geometry" />
        </mxCell>
      </root>
    </mxGraphModel>
  </diagram>
</mxfile>
